<?xml version="1.0" encoding="utf-8"?>
<!-- Generator: Adobe Illustrator 25.4.1, SVG Export Plug-In . SVG Version: 6.00 Build 0)  -->
<svg version="1.1" id="Calque_1" xmlns="http://www.w3.org/2000/svg" xmlns:xlink="http://www.w3.org/1999/xlink" x="0px" y="0px"
	 viewBox="0 0 239 300" style="enable-background:new 0 0 239 300;" xml:space="preserve">
<style type="text/css">
	.st0{opacity:0.5;fill:#1A3E78;}
	.st1{fill:#1A3E78;}
	.st2{fill:#3A6DAC;}
	.st3{fill:#284F8A;}
	.st4{fill:#D5ECFB;}
	.st5{fill:#FFFFFF;}
	.st6{fill:#5793CE;}
	.st7{fill:#E93E8F;}
	.st8{opacity:0.3;}
	.st9{clip-path:url(#SVGID_00000070797660508251722610000004637202769247212200_);}
	.st10{fill:#79B1E0;}
	.st11{fill:#CA2586;}
	.st12{fill:#DD75AC;}
	.st13{clip-path:url(#SVGID_00000162331919916270558640000015814386707332017597_);}
	.st14{fill:#B51481;}
</style>
<g>
	<path class="st0" d="M142.7,200.7l-82.1-47.4c-2.3-1.3-2-3.7,0.7-5.2l55.9-32.3c2.7-1.5,6.7-1.7,9.1-0.4l82.1,47.4
		c2.3,1.3,2,3.7-0.7,5.2l-55.9,32.3C149,201.8,145,202,142.7,200.7z"/>
	<path class="st1" d="M231.3,71.1l-85.5-49.3c-1-0.6-2-0.7-2.9-0.4l0,0l-0.2,0.1c0,0,0,0,0,0l-3.1,1.2l2.8,1.4c0,0.1,0,0.1,0,0.2
		l-13.9,63.4c-0.7,3.2,0.7,6.9,3.1,8.3L215,144l-0.3,3.5l3.4-1.3c1.1-0.5,2-1.7,2.4-3.4l13.9-63.4C235.1,76.2,233.7,72.5,231.3,71.1
		z"/>
	<path class="st2" d="M231.3,71.1l-85.5-49.3c-1-0.6-2-0.7-2.9-0.4l0,0l-0.2,0.1c0,0,0,0,0,0l-3.1,1.2l2.8,1.4c0,0.1,0,0.1,0,0.2
		L133.2,66l41.8,32.6l59-24C233.5,73.1,232.5,71.8,231.3,71.1z"/>
	<path class="st3" d="M228.1,80.9l6.5-2.8c0.1-2.5-0.9-5.1-2.6-6.5l-10.3,4.3L228.1,80.9z"/>
	<path class="st4" d="M211.8,147.2l-85.5-49.3c-2.4-1.4-3.8-5.1-3.1-8.3l13.9-63.4c0.7-3.2,3.2-4.6,5.6-3.2l85.5,49.3
		c2.4,1.4,3.8,5.1,3.1,8.3L217.4,144C216.7,147.1,214.2,148.6,211.8,147.2z"/>
	<path class="st5" d="M229,72l-85.5-49.3c-1.2-0.7-2.4-0.7-3.4-0.1c0.8-0.2,1.7-0.1,2.5,0.4l85.5,49.3c2.4,1.4,3.8,5.1,3.1,8.3
		L217.4,144c-0.4,1.6-1.2,2.8-2.3,3.4c1.4-0.3,2.6-1.6,3.1-3.7l13.9-63.4C232.8,77.1,231.4,73.4,229,72z"/>
	<path class="st5" d="M209.9,142.5l-80.4-46.4c-2.2-1.3-3.5-4.7-2.9-7.6l12.7-58c0.6-2.9,2.9-4.2,5.2-2.9L224.9,74
		c2.2,1.3,3.5,4.7,2.9,7.6l-12.7,58C214.4,142.4,212.1,143.8,209.9,142.5z"/>
	<path class="st1" d="M209.9,142.5l-80.4-46.4c-2.2-1.3-3.5-4.7-2.9-7.6l12.7-58c0.6-2.9,2.9-4.2,5.2-2.9L224.9,74
		c2.2,1.3,3.5,4.7,2.9,7.6l-12.7,58C214.4,142.4,212.1,143.8,209.9,142.5z"/>
	<path class="st6" d="M210.6,142.2l-80.4-46.4c-2.2-1.3-3.5-4.7-2.9-7.6l12.7-58c0.3-1.5,1.1-2.5,2-3.1c-1.3,0.3-2.3,1.5-2.7,3.3
		l-12.7,58c-0.6,2.9,0.6,6.3,2.9,7.6l80.4,46.4c1.1,0.6,2.2,0.6,3.1,0.1C212.3,142.8,211.4,142.7,210.6,142.2z"/>
	<path class="st1" d="M212.9,149.3l-11.7-1.5l-75.4-43.5c-2.4-1.4-6.6-1.2-9.4,0.4L63,135.5l-7.1-0.9v4l0,0c0,0.9,0.5,1.8,1.6,2.5
		l85.5,49.3c2.4,1.4,6.6,1.2,9.4-0.4l58.2-33.6c1.6-0.9,2.4-2.1,2.3-3.2l0,0V149.3z"/>
	<path class="st2" d="M156.3,121.8l-5.4-3.1H92l-29,16.8l-7.1-0.9v4l0,0c0,0.9,0.5,1.8,1.6,2.5l85.5,49.3c1.3,0.7,3.1,1,4.9,0.9
		L156.3,121.8z"/>
	<path class="st6" d="M59,135l-3.1-0.4v4l0,0c0,0.9,0.5,1.8,1.6,2.5l1.5,0.9V135z"/>
	<path class="st3" d="M143.9,190.8c2.3,0.9,5.6,0.7,8-0.5v-8.9h-8V190.8z"/>
	<path class="st4" d="M143,186.4L57.5,137c-2.4-1.4-2.1-3.8,0.7-5.4L116.4,98c2.8-1.6,7-1.8,9.4-0.4l85.5,49.3
		c2.4,1.4,2.1,3.8-0.7,5.4L152.4,186C149.6,187.6,145.4,187.8,143,186.4z"/>
	<path class="st5" d="M210.6,150.9l-58.2,33.6c-2.8,1.6-7,1.8-9.4,0.4l-85.5-49.3c-0.8-0.5-1.3-1-1.5-1.6c-0.4,1.1,0.1,2.3,1.5,3.1
		l85.5,49.3c2.4,1.4,6.6,1.2,9.4-0.4l58.2-33.6c1.9-1.1,2.6-2.5,2.2-3.8C212.5,149.4,211.8,150.3,210.6,150.9z"/>
	<g>
		<path class="st6" d="M93.9,120.7l-3.9-2.2c-0.3-0.2-0.3-0.5,0.1-0.7l4.6-2.6c0.4-0.2,0.9-0.2,1.2-0.1l3.9,2.2
			c0.3,0.2,0.3,0.5-0.1,0.7l-4.6,2.6C94.7,120.9,94.2,120.9,93.9,120.7z"/>
		<path class="st6" d="M99.9,124.1l-3.9-2.2c-0.3-0.2-0.3-0.5,0.1-0.7l4.6-2.6c0.4-0.2,0.9-0.2,1.2-0.1l3.9,2.2
			c0.3,0.2,0.3,0.5-0.1,0.7l-4.6,2.6C100.7,124.3,100.2,124.3,99.9,124.1z"/>
		<path class="st6" d="M105.8,127.6l-3.9-2.2c-0.3-0.2-0.3-0.5,0.1-0.7l4.6-2.6c0.4-0.2,0.9-0.2,1.2-0.1l3.9,2.2
			c0.3,0.2,0.3,0.5-0.1,0.7l-4.6,2.6C106.7,127.8,106.1,127.8,105.8,127.6z"/>
		<path class="st6" d="M114.1,124.7l-3.9-2.2c-0.3-0.2-0.3-0.5,0.1-0.7l3.8-2.2c0.4-0.2,0.9-0.2,1.2-0.1l3.9,2.2
			c0.3,0.2,0.3,0.5-0.1,0.7l-3.8,2.2C114.9,124.9,114.4,124.9,114.1,124.7z"/>
		<path class="st6" d="M120.1,128.2l-3.9-2.2c-0.3-0.2-0.3-0.5,0.1-0.7l3.8-2.2c0.4-0.2,0.9-0.2,1.2-0.1l3.9,2.2
			c0.3,0.2,0.3,0.5-0.1,0.7l-3.8,2.2C120.9,128.4,120.4,128.4,120.1,128.2z"/>
		<path class="st6" d="M126,131.6l-3.9-2.2c-0.3-0.2-0.3-0.5,0.1-0.7l3.8-2.2c0.4-0.2,0.9-0.2,1.2-0.1l3.9,2.2
			c0.3,0.2,0.3,0.5-0.1,0.7l-3.8,2.2C126.9,131.8,126.3,131.8,126,131.6z"/>
		<path class="st6" d="M132,135.1l-3.9-2.2c-0.3-0.2-0.3-0.5,0.1-0.7l3.8-2.2c0.4-0.2,0.9-0.2,1.2-0.1l3.9,2.2
			c0.3,0.2,0.3,0.5-0.1,0.7l-3.8,2.2C132.9,135.2,132.3,135.3,132,135.1z"/>
		<path class="st6" d="M138,138.5l-3.9-2.2c-0.3-0.2-0.3-0.5,0.1-0.7l3.8-2.2c0.4-0.2,0.9-0.2,1.2-0.1l3.9,2.2
			c0.3,0.2,0.3,0.5-0.1,0.7l-3.8,2.2C138.8,138.7,138.3,138.7,138,138.5z"/>
		<path class="st6" d="M143.9,142l-3.9-2.2c-0.3-0.2-0.3-0.5,0.1-0.7l3.8-2.2c0.4-0.2,0.9-0.2,1.2-0.1l3.9,2.2
			c0.3,0.2,0.3,0.5-0.1,0.7l-3.8,2.2C144.8,142.1,144.3,142.2,143.9,142z"/>
		<path class="st6" d="M149.9,145.4l-3.9-2.2c-0.3-0.2-0.3-0.5,0.1-0.7l3.8-2.2c0.4-0.2,0.9-0.2,1.2-0.1l3.9,2.2
			c0.3,0.2,0.3,0.5-0.1,0.7l-3.8,2.2C150.8,145.6,150.2,145.6,149.9,145.4z"/>
		<path class="st6" d="M155.9,148.9l-3.9-2.2c-0.3-0.2-0.3-0.5,0.1-0.7l3.8-2.2c0.4-0.2,0.9-0.2,1.2-0.1l3.9,2.2
			c0.3,0.2,0.3,0.5-0.1,0.7l-3.8,2.2C156.7,149,156.2,149.1,155.9,148.9z"/>
		<path class="st6" d="M161.9,152.3l-3.9-2.2c-0.3-0.2-0.3-0.5,0.1-0.7l3.8-2.2c0.4-0.2,0.9-0.2,1.2-0.1l3.9,2.2
			c0.3,0.2,0.3,0.5-0.1,0.7l-3.8,2.2C162.7,152.5,162.2,152.5,161.9,152.3z"/>
		<path class="st6" d="M167.8,155.8l-3.9-2.2c-0.3-0.2-0.3-0.5,0.1-0.7l3.8-2.2c0.4-0.2,0.9-0.2,1.2-0.1l3.9,2.2
			c0.3,0.2,0.3,0.5-0.1,0.7l-3.8,2.2C168.7,155.9,168.1,156,167.8,155.8z"/>
		<path class="st6" d="M122.9,123.1l-3.9-2.2c-0.3-0.2-0.3-0.5,0.1-0.7l3.8-2.2c0.4-0.2,0.9-0.2,1.2-0.1l3.9,2.2
			c0.3,0.2,0.3,0.5-0.1,0.7l-3.8,2.2C123.7,123.3,123.2,123.3,122.9,123.1z"/>
		<path class="st6" d="M116.8,119.6l-3.9-2.2c-0.3-0.2-0.3-0.5,0.1-0.7l3.8-2.2c0.4-0.2,0.9-0.2,1.2-0.1l3.9,2.2
			c0.3,0.2,0.3,0.5-0.1,0.7l-3.8,2.2C117.7,119.8,117.1,119.8,116.8,119.6z"/>
		<path class="st6" d="M110.8,116.1l-8.3-4.8c-0.3-0.2-0.3-0.5,0.1-0.7l3.8-2.2c0.4-0.2,0.9-0.2,1.2-0.1l8.3,4.8
			c0.3,0.2,0.3,0.5-0.1,0.7l-3.8,2.2C111.6,116.3,111.1,116.3,110.8,116.1z"/>
		<path class="st6" d="M115,111.9l-6.8-3.9c-0.3-0.2-0.3-0.5,0.1-0.7l3.8-2.2c0.4-0.2,0.9-0.2,1.2-0.1l6.8,3.9
			c0.3,0.2,0.3,0.5-0.1,0.7l-3.8,2.2C115.8,112,115.3,112,115,111.9z"/>
		<path class="st6" d="M128.9,126.6l-3.9-2.2c-0.3-0.2-0.3-0.5,0.1-0.7l3.8-2.2c0.4-0.2,0.9-0.2,1.2-0.1l3.9,2.2
			c0.3,0.2,0.3,0.5-0.1,0.7l-3.8,2.2C129.7,126.7,129.2,126.7,128.9,126.6z"/>
		<path class="st6" d="M134.8,130l-3.9-2.2c-0.3-0.2-0.3-0.5,0.1-0.7l3.8-2.2c0.4-0.2,0.9-0.2,1.2-0.1l3.9,2.2
			c0.3,0.2,0.3,0.5-0.1,0.7L136,130C135.7,130.2,135.1,130.2,134.8,130z"/>
		<path class="st6" d="M140.8,133.5l-3.9-2.2c-0.3-0.2-0.3-0.5,0.1-0.7l3.8-2.2c0.4-0.2,0.9-0.2,1.2-0.1l3.9,2.2
			c0.3,0.2,0.3,0.5-0.1,0.7l-3.8,2.2C141.7,133.6,141.1,133.6,140.8,133.5z"/>
		<path class="st6" d="M146.8,136.9l-3.9-2.2c-0.3-0.2-0.3-0.5,0.1-0.7l3.8-2.2c0.4-0.2,0.9-0.2,1.2-0.1l3.9,2.2
			c0.3,0.2,0.3,0.5-0.1,0.7l-3.8,2.2C147.6,137.1,147.1,137.1,146.8,136.9z"/>
		<path class="st6" d="M152.7,140.4l-3.9-2.2c-0.3-0.2-0.3-0.5,0.1-0.7l3.8-2.2c0.4-0.2,0.9-0.2,1.2-0.1l3.9,2.2
			c0.3,0.2,0.3,0.5-0.1,0.7l-3.8,2.2C153.6,140.5,153.1,140.5,152.7,140.4z"/>
		<path class="st6" d="M158.7,143.8l-3.9-2.2c-0.3-0.2-0.3-0.5,0.1-0.7l3.8-2.2c0.4-0.2,0.9-0.2,1.2-0.1l3.9,2.2
			c0.3,0.2,0.3,0.5-0.1,0.7l-3.8,2.2C159.6,144,159,144,158.7,143.8z"/>
		<path class="st6" d="M164.7,147.3l-3.9-2.2c-0.3-0.2-0.3-0.5,0.1-0.7l3.8-2.2c0.4-0.2,0.9-0.2,1.2-0.1l3.9,2.2
			c0.3,0.2,0.3,0.5-0.1,0.7l-3.8,2.2C165.5,147.4,165,147.4,164.7,147.3z"/>
		<path class="st6" d="M170.7,150.7l-3.9-2.2c-0.3-0.2-0.3-0.5,0.1-0.7l3.8-2.2c0.4-0.2,0.9-0.2,1.2-0.1l3.9,2.2
			c0.3,0.2,0.3,0.5-0.1,0.7l-3.8,2.2C171.5,150.9,171,150.9,170.7,150.7z"/>
		<path class="st6" d="M176.6,154.1l-3.9-2.2c-0.3-0.2-0.3-0.5,0.1-0.7l3.8-2.2c0.4-0.2,0.9-0.2,1.2-0.1l3.9,2.2
			c0.3,0.2,0.3,0.5-0.1,0.7l-3.8,2.2C177.5,154.3,176.9,154.3,176.6,154.1z"/>
		<path class="st6" d="M187.2,160.3l-8.4-4.9c-0.3-0.2-0.3-0.5,0.1-0.7l3.8-2.2c0.4-0.2,0.9-0.2,1.2-0.1l8.4,4.9
			c0.3,0.2,0.3,0.5-0.1,0.7l-3.8,2.2C188.1,160.4,187.6,160.5,187.2,160.3z"/>
		<path class="st6" d="M198.9,153.6l-7.1-4.1c-0.3-0.2-0.3-0.5,0.1-0.7l3.8-2.2c0.4-0.2,0.9-0.2,1.2-0.1l7.1,4.1
			c0.3,0.2,0.3,0.5-0.1,0.7l-3.8,2.2C199.7,153.7,199.2,153.7,198.9,153.6z"/>
		<path class="st6" d="M139.3,125.9l-3.9-2.2c-0.3-0.2-0.3-0.5,0.1-0.7l3.8-2.2c0.4-0.2,0.9-0.2,1.2-0.1l3.9,2.2
			c0.3,0.2,0.3,0.5-0.1,0.7l-3.8,2.2C140.2,126,139.6,126.1,139.3,125.9z"/>
		<path class="st6" d="M133.2,122.4l-3.9-2.2c-0.3-0.2-0.3-0.5,0.1-0.7l3.8-2.2c0.4-0.2,0.9-0.2,1.2-0.1l3.9,2.2
			c0.3,0.2,0.3,0.5-0.1,0.7l-3.8,2.2C134,122.5,133.5,122.5,133.2,122.4z"/>
		<path class="st6" d="M127.1,118.8l-3.9-2.2c-0.3-0.2-0.3-0.5,0.1-0.7l3.8-2.2c0.4-0.2,0.9-0.2,1.2-0.1l3.9,2.2
			c0.3,0.2,0.3,0.5-0.1,0.7l-3.8,2.2C127.9,119,127.4,119,127.1,118.8z"/>
		<path class="st6" d="M121,115.3l-3.9-2.2c-0.3-0.2-0.3-0.5,0.1-0.7l3.8-2.2c0.4-0.2,0.9-0.2,1.2-0.1l3.9,2.2
			c0.3,0.2,0.3,0.5-0.1,0.7l-3.8,2.2C121.8,115.4,121.3,115.5,121,115.3z"/>
		<path class="st6" d="M145.3,129.3l-3.9-2.2c-0.3-0.2-0.3-0.5,0.1-0.7l3.8-2.2c0.4-0.2,0.9-0.2,1.2-0.1l3.9,2.2
			c0.3,0.2,0.3,0.5-0.1,0.7l-3.8,2.2C146.1,129.5,145.6,129.5,145.3,129.3z"/>
		<path class="st6" d="M151.3,132.8l-3.9-2.2c-0.3-0.2-0.3-0.5,0.1-0.7l3.8-2.2c0.4-0.2,0.9-0.2,1.2-0.1l3.9,2.2
			c0.3,0.2,0.3,0.5-0.1,0.7l-3.8,2.2C152.1,132.9,151.6,133,151.3,132.8z"/>
		<path class="st6" d="M157.2,136.2l-3.9-2.2c-0.3-0.2-0.3-0.5,0.1-0.7l3.8-2.2c0.4-0.2,0.9-0.2,1.2-0.1l3.9,2.2
			c0.3,0.2,0.3,0.5-0.1,0.7l-3.8,2.2C158.1,136.4,157.5,136.4,157.2,136.2z"/>
		<path class="st6" d="M163.2,139.7l-3.9-2.2c-0.3-0.2-0.3-0.5,0.1-0.7l3.8-2.2c0.4-0.2,0.9-0.2,1.2-0.1l3.9,2.2
			c0.3,0.2,0.3,0.5-0.1,0.7l-3.8,2.2C164.1,139.8,163.5,139.9,163.2,139.7z"/>
		<path class="st6" d="M169.2,143.1l-3.9-2.2c-0.3-0.2-0.3-0.5,0.1-0.7l3.8-2.2c0.4-0.2,0.9-0.2,1.2-0.1l3.9,2.2
			c0.3,0.2,0.3,0.5-0.1,0.7l-3.8,2.2C170,143.3,169.5,143.3,169.2,143.1z"/>
		<path class="st6" d="M175.1,146.6l-3.9-2.2c-0.3-0.2-0.3-0.5,0.1-0.7l3.8-2.2c0.4-0.2,0.9-0.2,1.2-0.1l3.9,2.2
			c0.3,0.2,0.3,0.5-0.1,0.7l-3.8,2.2C176,146.7,175.5,146.8,175.1,146.6z"/>
		<path class="st6" d="M181.1,150l-3.9-2.2c-0.3-0.2-0.3-0.5,0.1-0.7l3.8-2.2c0.4-0.2,0.9-0.2,1.2-0.1l3.9,2.2
			c0.3,0.2,0.3,0.5-0.1,0.7l-3.8,2.2C182,150.2,181.4,150.2,181.1,150z"/>
		<path class="st6" d="M187.1,153.5l-3.9-2.2c-0.3-0.2-0.3-0.5,0.1-0.7l3.8-2.2c0.4-0.2,0.9-0.2,1.2-0.1l3.9,2.2
			c0.3,0.2,0.3,0.5-0.1,0.7l-3.8,2.2C187.9,153.6,187.4,153.7,187.1,153.5z"/>
		<path class="st6" d="M193.1,156.9l-3.9-2.2c-0.3-0.2-0.3-0.5,0.1-0.7l3.8-2.2c0.4-0.2,0.9-0.2,1.2-0.1l3.9,2.2
			c0.3,0.2,0.3,0.5-0.1,0.7l-3.8,2.2C193.9,157.1,193.4,157.1,193.1,156.9z"/>
		<path class="st6" d="M136.2,117.4l-3.9-2.2c-0.3-0.2-0.3-0.5,0.1-0.7l3.8-2.2c0.4-0.2,0.9-0.2,1.2-0.1l3.9,2.2
			c0.3,0.2,0.3,0.5-0.1,0.7l-3.8,2.2C137,117.5,136.5,117.5,136.2,117.4z"/>
		<path class="st6" d="M130.2,113.9l-3.9-2.2c-0.3-0.2-0.3-0.5,0.1-0.7l3.8-2.2c0.4-0.2,0.9-0.2,1.2-0.1l3.9,2.2
			c0.3,0.2,0.3,0.5-0.1,0.7l-3.8,2.2C131.1,114.1,130.5,114.1,130.2,113.9z"/>
		<path class="st6" d="M124.3,110.5l-3.9-2.2c-0.3-0.2-0.3-0.5,0.1-0.7l3.8-2.2c0.4-0.2,0.9-0.2,1.2-0.1l3.9,2.2
			c0.3,0.2,0.3,0.5-0.1,0.7l-3.8,2.2C125.1,110.7,124.6,110.7,124.3,110.5z"/>
		<path class="st6" d="M118.3,107.1l-3.9-2.2c-0.3-0.2-0.3-0.5,0.1-0.7l3.8-2.2c0.4-0.2,0.9-0.2,1.2-0.1l3.9,2.2
			c0.3,0.2,0.3,0.5-0.1,0.7l-3.8,2.2C119.2,107.2,118.7,107.2,118.3,107.1z"/>
		<path class="st6" d="M124.5,103.5l-3.9-2.2c-0.3-0.2-0.3-0.5,0.1-0.7l1.3-0.7c0.4-0.2,0.9-0.2,1.2-0.1l3.9,2.2
			c0.3,0.2,0.3,0.5-0.1,0.7l-1.3,0.7C125.3,103.7,124.8,103.7,124.5,103.5z"/>
		<path class="st6" d="M132.2,108l-3.9-2.2c-0.3-0.2-0.3-0.5,0.1-0.7l1.3-0.7c0.4-0.2,0.9-0.2,1.2-0.1l3.9,2.2
			c0.3,0.2,0.3,0.5-0.1,0.7l-1.3,0.7C133.1,108.2,132.5,108.2,132.2,108z"/>
		<path class="st6" d="M138.1,111.4l-3.9-2.2c-0.3-0.2-0.3-0.5,0.1-0.7l1.3-0.7c0.4-0.2,0.9-0.2,1.2-0.1l3.9,2.2
			c0.3,0.2,0.3,0.5-0.1,0.7l-1.3,0.7C139,111.6,138.4,111.6,138.1,111.4z"/>
		<path class="st6" d="M144,114.9l-3.9-2.2c-0.3-0.2-0.3-0.5,0.1-0.7l1.3-0.7c0.4-0.2,0.9-0.2,1.2-0.1l3.9,2.2
			c0.3,0.2,0.3,0.5-0.1,0.7l-1.3,0.7C144.9,115,144.4,115,144,114.9z"/>
		<path class="st6" d="M150,118.3l-3.9-2.2c-0.3-0.2-0.3-0.5,0.1-0.7l1.3-0.7c0.4-0.2,0.9-0.2,1.2-0.1l3.9,2.2
			c0.3,0.2,0.3,0.5-0.1,0.7l-1.3,0.7C150.8,118.4,150.3,118.4,150,118.3z"/>
		<path class="st6" d="M183,137.3l-3.9-2.2c-0.3-0.2-0.3-0.5,0.1-0.7l1.3-0.7c0.4-0.2,0.9-0.2,1.2-0.1l3.9,2.2
			c0.3,0.2,0.3,0.5-0.1,0.7l-1.3,0.7C183.8,137.5,183.3,137.5,183,137.3z"/>
		<path class="st6" d="M188.9,140.8l-3.9-2.2c-0.3-0.2-0.3-0.5,0.1-0.7l1.3-0.7c0.4-0.2,0.9-0.2,1.2-0.1l3.9,2.2
			c0.3,0.2,0.3,0.5-0.1,0.7l-1.3,0.7C189.8,140.9,189.2,140.9,188.9,140.8z"/>
		<path class="st6" d="M194.8,144.2l-3.9-2.2c-0.3-0.2-0.3-0.5,0.1-0.7l1.3-0.7c0.4-0.2,0.9-0.2,1.2-0.1l3.9,2.2
			c0.3,0.2,0.3,0.5-0.1,0.7l-1.3,0.7C195.7,144.3,195.1,144.4,194.8,144.2z"/>
		<path class="st6" d="M200.7,147.6l-3.9-2.2c-0.3-0.2-0.3-0.5,0.1-0.7l1.3-0.7c0.4-0.2,0.9-0.2,1.2-0.1l3.9,2.2
			c0.3,0.2,0.3,0.5-0.1,0.7l-1.3,0.7C201.6,147.7,201.1,147.8,200.7,147.6z"/>
		<path class="st6" d="M142.1,120.8l-3.9-2.2c-0.3-0.2-0.3-0.5,0.1-0.7l3.8-2.2c0.4-0.2,0.9-0.2,1.2-0.1l3.9,2.2
			c0.3,0.2,0.3,0.5-0.1,0.7l-3.8,2.2C143,121,142.5,121,142.1,120.8z"/>
		<path class="st6" d="M148.1,124.3l-3.9-2.2c-0.3-0.2-0.3-0.5,0.1-0.7l3.8-2.2c0.4-0.2,0.9-0.2,1.2-0.1l3.9,2.2
			c0.3,0.2,0.3,0.5-0.1,0.7l-3.8,2.2C149,124.4,148.4,124.4,148.1,124.3z"/>
		<path class="st6" d="M154.1,127.7l-3.9-2.2c-0.3-0.2-0.3-0.5,0.1-0.7l3.8-2.2c0.4-0.2,0.9-0.2,1.2-0.1l3.9,2.2
			c0.3,0.2,0.3,0.5-0.1,0.7l-3.8,2.2C154.9,127.9,154.4,127.9,154.1,127.7z"/>
		<path class="st6" d="M160.1,131.2l-3.9-2.2c-0.3-0.2-0.3-0.5,0.1-0.7l3.8-2.2c0.4-0.2,0.9-0.2,1.2-0.1l3.9,2.2
			c0.3,0.2,0.3,0.5-0.1,0.7l-3.8,2.2C160.9,131.3,160.4,131.3,160.1,131.2z"/>
		<path class="st6" d="M166,134.6l-3.9-2.2c-0.3-0.2-0.3-0.5,0.1-0.7l3.8-2.2c0.4-0.2,0.9-0.2,1.2-0.1l3.9,2.2
			c0.3,0.2,0.3,0.5-0.1,0.7l-3.8,2.2C166.9,134.8,166.3,134.8,166,134.6z"/>
		<path class="st6" d="M172,138l-3.9-2.2c-0.3-0.2-0.3-0.5,0.1-0.7l3.8-2.2c0.4-0.2,0.9-0.2,1.2-0.1l3.9,2.2
			c0.3,0.2,0.3,0.5-0.1,0.7l-3.8,2.2C172.9,138.2,172.3,138.2,172,138z"/>
		<path class="st6" d="M178,141.5l-3.9-2.2c-0.3-0.2-0.3-0.5,0.1-0.7l3.8-2.2c0.4-0.2,0.9-0.2,1.2-0.1l3.9,2.2
			c0.3,0.2,0.3,0.5-0.1,0.7l-3.8,2.2C178.8,141.7,178.3,141.7,178,141.5z"/>
		<path class="st6" d="M183.9,144.9l-3.9-2.2c-0.3-0.2-0.3-0.5,0.1-0.7l3.8-2.2c0.4-0.2,0.9-0.2,1.2-0.1l3.9,2.2
			c0.3,0.2,0.3,0.5-0.1,0.7l-3.8,2.2C184.8,145.1,184.3,145.1,183.9,144.9z"/>
		<path class="st6" d="M189.9,148.4l-3.9-2.2c-0.3-0.2-0.3-0.5,0.1-0.7l3.8-2.2c0.4-0.2,0.9-0.2,1.2-0.1l3.9,2.2
			c0.3,0.2,0.3,0.5-0.1,0.7l-3.8,2.2C190.8,148.5,190.2,148.6,189.9,148.4z"/>
		<path class="st6" d="M108,121.2l-11.4-6.6c-0.3-0.2-0.3-0.5,0.1-0.7l3.8-2.2c0.4-0.2,0.9-0.2,1.2-0.1l11.4,6.6
			c0.3,0.2,0.3,0.5-0.1,0.7l-3.8,2.2C108.9,121.4,108.3,121.4,108,121.2z"/>
		<path class="st6" d="M181.4,163.6L170,157c-0.3-0.2-0.3-0.5,0.1-0.7l3.8-2.2c0.4-0.2,0.9-0.2,1.2-0.1l11.4,6.6
			c0.3,0.2,0.3,0.5-0.1,0.7l-3.8,2.2C182.2,163.8,181.7,163.8,181.4,163.6z"/>
		<path class="st6" d="M157.5,157.4l-3.9-2.2c-0.3-0.2-0.3-0.5,0.1-0.7l4.6-2.6c0.4-0.2,0.9-0.2,1.2-0.1l3.9,2.2
			c0.3,0.2,0.3,0.5-0.1,0.7l-4.6,2.6C158.3,157.6,157.8,157.6,157.5,157.4z"/>
		<path class="st6" d="M114.1,132.4l-6.2-3.6c-0.3-0.2-0.3-0.5,0.1-0.7l4.6-2.6c0.4-0.2,0.9-0.2,1.2-0.1l6.2,3.6
			c0.3,0.2,0.3,0.5-0.1,0.7l-4.6,2.6C115,132.5,114.4,132.6,114.1,132.4z"/>
		<path class="st6" d="M151.7,154.1l-6.2-3.6c-0.3-0.2-0.3-0.5,0.1-0.7l4.6-2.6c0.4-0.2,0.9-0.2,1.2-0.1l6.2,3.6
			c0.3,0.2,0.3,0.5-0.1,0.7l-4.6,2.6C152.6,154.3,152,154.3,151.7,154.1z"/>
		<path class="st6" d="M122.7,137.4l-6.2-3.6c-0.3-0.2-0.3-0.5,0.1-0.7l4.6-2.6c0.4-0.2,0.9-0.2,1.2-0.1l6.2,3.6
			c0.3,0.2,0.3,0.5-0.1,0.7l-4.6,2.6C123.6,137.5,123,137.5,122.7,137.4z"/>
		<path class="st6" d="M122.5,130.4l26.9,15.5c0.3,0.2,0.3,0.5,0,0.7l-4.7,2.7c-0.3,0.2-0.9,0.2-1.2,0l-26.9-15.5L122.5,130.4z"/>
		<path class="st6" d="M174.2,163.7l4.3,2.5c0.3,0.1,0.2,0.4-0.1,0.6l-1.9,1.1c-0.3,0.2-0.7,0.2-1,0l-4.3-2.5
			c-0.3-0.1-0.2-0.4,0.1-0.6l1.9-1.1C173.5,163.5,173.9,163.5,174.2,163.7z"/>
		<path class="st6" d="M168.2,160.2l4.3,2.5c0.3,0.1,0.2,0.4-0.1,0.6l-1.9,1.1c-0.3,0.2-0.7,0.2-1,0l-4.3-2.5
			c-0.3-0.1-0.2-0.4,0.1-0.6l1.9-1.1C167.5,160.1,167.9,160,168.2,160.2z"/>
		<path class="st6" d="M162.2,156.7l4.3,2.5c0.3,0.1,0.2,0.4-0.1,0.6l-1.9,1.1c-0.3,0.2-0.7,0.2-1,0l-4.3-2.5
			c-0.3-0.1-0.2-0.4,0.1-0.6l1.9-1.1C161.5,156.6,161.9,156.6,162.2,156.7z"/>
		<path class="st6" d="M171.4,158.3l4.3,2.5c0.3,0.1,0.2,0.4-0.1,0.6l-1.9,1.1c-0.3,0.2-0.7,0.2-1,0l-4.3-2.5
			c-0.3-0.1-0.2-0.4,0.1-0.6l1.9-1.1C170.7,158.2,171.2,158.1,171.4,158.3z"/>
	</g>
	<g>
		<polygon class="st4" points="195,91 162.9,72.4 163.3,70.4 195.5,88.9 		"/>
		<polygon class="st4" points="183.5,94.5 161.1,81.6 161.5,79.5 183.9,92.5 		"/>
		<polygon class="st5" points="181.4,88.2 162,77 162.4,74.9 181.8,86.1 		"/>
		<polygon class="st7" points="194.1,95.6 184.4,90 184.8,87.9 194.5,93.5 		"/>
		<polygon class="st4" points="159.4,54.2 149.7,48.6 150.1,46.5 159.9,52.1 		"/>
		<polygon class="st5" points="158.4,59.1 148.7,53.5 149.1,51.4 158.8,57 		"/>
		<polygon class="st4" points="206.1,126.5 196.3,120.9 196.8,118.8 206.5,124.4 		"/>
		<polygon class="st4" points="156.3,68.8 146.6,63.2 147,61.1 156.7,66.7 		"/>
	</g>
	<g>
		<path class="st7" d="M177.3,70.3c-0.3,0.7-1.1,0.9-1.7,0.5c-0.7-0.4-0.9-1.2-0.6-1.9c0.3-0.7,1.1-0.9,1.7-0.5
			C177.3,68.8,177.6,69.6,177.3,70.3z"/>
		<path class="st5" d="M181.5,72.7c-0.3,0.7-1.1,0.9-1.7,0.5c-0.7-0.4-0.9-1.2-0.6-1.9c0.3-0.7,1.1-0.9,1.7-0.5
			C181.5,71.2,181.8,72,181.5,72.7z"/>
		<path class="st4" d="M185.6,75.1c-0.3,0.7-1.1,0.9-1.7,0.5c-0.7-0.4-0.9-1.2-0.6-1.9c0.3-0.7,1.1-0.9,1.7-0.5
			C185.7,73.6,185.9,74.4,185.6,75.1z"/>
		<path class="st7" d="M189.8,77.5c-0.3,0.7-1.1,0.9-1.7,0.5c-0.7-0.4-0.9-1.2-0.6-1.9c0.3-0.7,1.1-0.9,1.7-0.5
			C189.8,76,190.1,76.9,189.8,77.5z"/>
	</g>
	<path class="st5" d="M120.3,164.6l-26.7-15.4c-0.8-0.4-0.7-1.2,0.2-1.7l16.1-9.3c0.9-0.5,2.3-0.6,3-0.1l26.7,15.4
		c0.8,0.4,0.7,1.2-0.2,1.7l-16.1,9.3C122.4,165,121.1,165,120.3,164.6z"/>
</g>
<g class="st8">
	<defs>
		<path id="SVGID_1_" class="st8" d="M192.7,127.3l13.1-53.4l-49.4-29.3l28.5-13.1l36.7,14.2c0,0,0.2,64.7,0,65.3
			S208,133.3,208,133.3L192.7,127.3z"/>
	</defs>
	<clipPath id="SVGID_00000075129817362262471000000014302123051867113623_">
		<use xlink:href="#SVGID_1_"  style="overflow:visible;"/>
	</clipPath>
	<g style="clip-path:url(#SVGID_00000075129817362262471000000014302123051867113623_);">
		<g>
			<g>
				<path class="st4" d="M178.2,95.2c1.8,1.1,1.8,2.8,0,3.8l-31.2,18c-0.5,0.3-1.3,0.3-1.8,0c-0.5-0.3-0.5-0.8,0-1.1l31.2-18
					c0.8-0.5,0.8-1.3,0-1.7l-3-1.7c0.3-0.5,0.6-1,0.9-1.6L178.2,95.2z"/>
				<path class="st6" d="M133.9,109.6l31.2-18c1.8-1.1,4.8-1.1,6.7,0l2.4,1.4c-0.3,0.5-0.6,1.1-0.9,1.6l-3.3-1.9
					c-0.8-0.5-2.2-0.5-3,0l-31.2,18c-0.5,0.3-1.3,0.3-1.8,0C133.4,110.4,133.4,109.9,133.9,109.6z"/>
			</g>
			<polygon class="st6" points="133.6,110.2 133.6,66.3 166.3,48 170.8,47.7 175.3,50.6 178,53 146.1,103.5 135.7,109.6 			"/>
			<polygon class="st10" points="145.7,115.7 135.9,110.1 135.9,67.6 146,72.3 			"/>
			<polygon class="st4" points="179.5,53.3 179.5,97.1 145.2,116.8 144.7,116.6 144.7,72.7 			"/>
			<g>
				<path class="st5" d="M160.2,53.7l6.8-3.9c0.8-0.4,2.1-0.4,2.8,0.1l6.3,3.7c0.5,0.3,0.7,0.7,0.6,1l-17.2,10.3l-13.9,8.5l-9.8-5.7
					L160.2,53.7z"/>
			</g>
			<path class="st6" d="M146,72v43.6v0.9v0.8c-0.3,0-0.6-0.1-0.9-0.2c-0.2-0.1-0.4-0.3-0.4-0.5l0,0v0v0V72.7L146,72z"/>
			<polygon class="st5" points="133.6,66.8 133.6,66.3 133.7,66.3 133.8,66.6 			"/>
			<polygon class="st5" points="144.7,73.3 144.7,72.7 144.9,72.9 			"/>
			<g>
				<path class="st4" d="M146.9,73.2l31.2-18c1.8-1.1,1.8-2.8,0-3.8l-6.3-3.7c-1.8-1.1-4.8-1.1-6.7,0l-31.2,18
					c-0.5,0.3-0.5,0.8,0,1.1c0.5,0.3,1.3,0.3,1.8,0l31.2-18c0.8-0.5,2.2-0.5,3,0l6.3,3.7c0.8,0.5,0.8,1.3,0,1.7l-31.2,18
					c-0.5,0.3-0.5,0.8,0,1.1C145.6,73.5,146.4,73.5,146.9,73.2z"/>
			</g>
			<polygon class="st5" points="155.1,94 171.3,84.6 171.3,68.4 155.1,77.7 			"/>
			<g>
				<path class="st5" d="M133.9,66.8c0.5,0.3,1.3,0.3,1.8,0l31.2-18c0.8-0.5,2.2-0.5,3,0l6.3,3.7c0.5,0.3,0.7,0.8,0.6,1.2
					c-0.1-0.2-0.3-0.4-0.6-0.6l-6.3-3.7c-0.8-0.5-2.2-0.5-3,0l-31.2,18c-0.5,0.3-1.3,0.3-1.8,0c-0.4-0.2-0.5-0.5-0.3-0.8
					C133.7,66.6,133.8,66.7,133.9,66.8z"/>
				<path class="st5" d="M145.1,73.2c0.5,0.3,1.3,0.3,1.8,0l31.2-18c0.8-0.5,1.2-1,1.3-1.6c0.1,0.8-0.3,1.6-1.3,2.2l-31.2,18
					c-0.5,0.3-1.3,0.3-1.8,0c-0.4-0.2-0.5-0.5-0.3-0.8C144.9,73.1,145,73.1,145.1,73.2z"/>
			</g>
		</g>
		<g>
			<g>
				<path class="st7" d="M192.5,103.7c1.8,1.1,1.8,2.8,0,3.8l-31.2,18c-0.5,0.3-1.3,0.3-1.8,0s-0.5-0.8,0-1.1l31.2-18
					c0.8-0.5,0.8-1.3,0-1.7l-3-1.7c0.3-0.5,0.6-1,0.9-1.6L192.5,103.7z"/>
				<path class="st11" d="M148.3,118.1l31.2-18c1.8-1.1,4.8-1.1,6.7,0l2.4,1.4c-0.3,0.5-0.6,1.1-0.9,1.6l-3.3-1.9
					c-0.8-0.5-2.2-0.5-3,0l-31.2,18c-0.5,0.3-1.3,0.3-1.8,0C147.8,118.9,147.8,118.4,148.3,118.1z"/>
			</g>
			<polygon class="st11" points="147.9,118.7 147.9,74.8 180.6,56.5 185.2,56.2 189.6,59.1 192.3,61.5 160.5,112 150.1,118.1 			"/>
			<polygon class="st12" points="160,124.2 150.2,118.6 150.2,76.1 160.3,80.8 			"/>
			<polygon class="st7" points="193.9,61.8 193.9,105.6 159.5,125.3 159.1,125.1 159.1,81.2 			"/>
			<g>
				<path class="st5" d="M174.6,62.2l6.8-3.9c0.8-0.4,2.1-0.4,2.8,0.1l6.3,3.7c0.5,0.3,0.7,0.7,0.6,1l-17.2,10.3L160,81.8l-9.8-5.7
					L174.6,62.2z"/>
			</g>
			<path class="st11" d="M160.3,80.5v43.6v0.9v0.8c-0.3,0-0.6-0.1-0.9-0.2c-0.2-0.1-0.4-0.3-0.4-0.5l0,0v0v0V81.2L160.3,80.5z"/>
			<polygon class="st5" points="147.9,75.3 147.9,74.8 148.1,74.8 148.1,75.1 			"/>
			<polygon class="st5" points="159.1,81.8 159.1,81.2 159.2,81.4 			"/>
			<g>
				<path class="st7" d="M161.3,81.7l31.2-18c1.8-1.1,1.8-2.8,0-3.8l-6.3-3.7c-1.8-1.1-4.8-1.1-6.7,0l-31.2,18
					c-0.5,0.3-0.5,0.8,0,1.1c0.5,0.3,1.3,0.3,1.8,0l31.2-18c0.8-0.5,2.2-0.5,3,0l6.3,3.7c0.8,0.5,0.8,1.3,0,1.7l-31.2,18
					c-0.5,0.3-0.5,0.8,0,1.1C160,82,160.8,82,161.3,81.7z"/>
			</g>
			<polygon class="st5" points="169.4,102.5 185.6,93.1 185.6,76.9 169.4,86.2 			"/>
			<g>
				<path class="st5" d="M148.3,75.3c0.5,0.3,1.3,0.3,1.8,0l31.2-18c0.8-0.5,2.2-0.5,3,0l6.3,3.7c0.5,0.3,0.7,0.8,0.6,1.2
					c-0.1-0.2-0.3-0.4-0.6-0.6l-6.3-3.7c-0.8-0.5-2.2-0.5-3,0l-31.2,18c-0.5,0.3-1.3,0.3-1.8,0c-0.4-0.2-0.5-0.5-0.3-0.8
					C148.1,75.1,148.2,75.2,148.3,75.3z"/>
				<path class="st5" d="M159.5,81.7c0.5,0.3,1.3,0.3,1.8,0l31.2-18c0.8-0.5,1.2-1,1.3-1.6c0.1,0.8-0.3,1.6-1.3,2.2l-31.2,18
					c-0.5,0.3-1.3,0.3-1.8,0c-0.4-0.2-0.5-0.5-0.3-0.8C159.2,81.6,159.3,81.6,159.5,81.7z"/>
			</g>
		</g>
		<g>
			<g>
				<path class="st4" d="M207.3,112.8c1.8,1.1,1.8,2.8,0,3.8l-31.2,18c-0.5,0.3-1.3,0.3-1.8,0c-0.5-0.3-0.5-0.8,0-1.1l31.2-18
					c0.8-0.5,0.8-1.3,0-1.7l-3-1.7c0.3-0.5,0.6-1,0.9-1.6L207.3,112.8z"/>
				<path class="st6" d="M163,127.2l31.2-18c1.8-1.1,4.8-1.1,6.7,0l2.4,1.4c-0.3,0.5-0.6,1.1-0.9,1.6l-3.3-1.9c-0.8-0.5-2.2-0.5-3,0
					l-31.2,18c-0.5,0.3-1.3,0.3-1.8,0C162.5,128,162.5,127.5,163,127.2z"/>
			</g>
			<polygon class="st6" points="162.7,127.8 162.7,83.9 195.4,65.6 200,65.3 204.4,68.2 207.1,70.5 175.2,121.1 164.8,127.2 			"/>
			<polygon class="st10" points="174.8,133.3 165,127.7 165,85.2 175.1,89.9 			"/>
			<polygon class="st4" points="208.6,70.9 208.6,114.7 174.3,134.4 173.8,134.2 173.8,90.3 			"/>
			<g>
				<path class="st5" d="M189.3,71.2l6.8-3.9c0.8-0.4,2.1-0.4,2.8,0.1l6.3,3.7c0.5,0.3,0.7,0.7,0.6,1l-17.2,10.3l-13.9,8.5l-9.8-5.7
					L189.3,71.2z"/>
			</g>
			<path class="st6" d="M175.1,89.6v43.6v0.9v0.8c-0.3,0-0.6-0.1-0.9-0.2c-0.2-0.1-0.4-0.3-0.4-0.5l0,0v0v0V90.3L175.1,89.6z"/>
			<polygon class="st5" points="162.7,84.4 162.7,83.9 162.8,83.9 162.9,84.2 			"/>
			<polygon class="st5" points="173.8,90.8 173.8,90.3 174,90.5 			"/>
			<g>
				<path class="st4" d="M176,90.8l31.2-18c1.8-1.1,1.8-2.8,0-3.8l-6.3-3.7c-1.8-1.1-4.8-1.1-6.7,0l-31.2,18c-0.5,0.3-0.5,0.8,0,1.1
					c0.5,0.3,1.3,0.3,1.8,0l31.2-18c0.8-0.5,2.2-0.5,3,0l6.3,3.7c0.8,0.5,0.8,1.3,0,1.7l-31.2,18c-0.5,0.3-0.5,0.8,0,1.1
					C174.7,91.1,175.5,91.1,176,90.8z"/>
			</g>
			<polygon class="st5" points="184.2,111.6 200.4,102.2 200.4,85.9 184.2,95.3 			"/>
			<g>
				<path class="st5" d="M163,84.4c0.5,0.3,1.3,0.3,1.8,0l31.2-18c0.8-0.5,2.2-0.5,3,0l6.3,3.7c0.5,0.3,0.7,0.8,0.6,1.2
					c-0.1-0.2-0.3-0.4-0.6-0.6l-6.3-3.7c-0.8-0.5-2.2-0.5-3,0l-31.2,18c-0.5,0.3-1.3,0.3-1.8,0c-0.4-0.2-0.5-0.5-0.3-0.8
					C162.8,84.2,162.9,84.3,163,84.4z"/>
				<path class="st5" d="M174.2,90.8c0.5,0.3,1.3,0.3,1.8,0l31.2-18c0.8-0.5,1.2-1,1.3-1.6c0.1,0.8-0.3,1.6-1.3,2.2l-31.2,18
					c-0.5,0.3-1.3,0.3-1.8,0c-0.4-0.2-0.5-0.5-0.3-0.8C174,90.6,174.1,90.7,174.2,90.8z"/>
			</g>
		</g>
	</g>
</g>
<g>
	<defs>
		<path id="SVGID_00000133507730976912458970000014546324475175193733_" d="M192.7,127.3l13.1-53.4l-49.4-29.3L96.1,67l46.2,60.3
			c0,0,38.2,21.8,38,22.4c-0.2,0.7,27.7-16.5,27.7-16.5L192.7,127.3z"/>
	</defs>
	<clipPath id="SVGID_00000064352411066687707670000002510176849127301013_">
		<use xlink:href="#SVGID_00000133507730976912458970000014546324475175193733_"  style="overflow:visible;"/>
	</clipPath>
	<g style="clip-path:url(#SVGID_00000064352411066687707670000002510176849127301013_);">
		<g>
			<g>
				<path class="st4" d="M178.2,95.2c1.8,1.1,1.8,2.8,0,3.8l-31.2,18c-0.5,0.3-1.3,0.3-1.8,0c-0.5-0.3-0.5-0.8,0-1.1l31.2-18
					c0.8-0.5,0.8-1.3,0-1.7l-3-1.7c0.3-0.5,0.6-1,0.9-1.6L178.2,95.2z"/>
				<path class="st6" d="M133.9,109.6l31.2-18c1.8-1.1,4.8-1.1,6.7,0l2.4,1.4c-0.3,0.5-0.6,1.1-0.9,1.6l-3.3-1.9
					c-0.8-0.5-2.2-0.5-3,0l-31.2,18c-0.5,0.3-1.3,0.3-1.8,0C133.4,110.4,133.4,109.9,133.9,109.6z"/>
			</g>
			<polygon class="st6" points="133.6,110.2 133.6,66.3 166.3,48 170.8,47.7 175.3,50.6 178,53 146.1,103.5 135.7,109.6 			"/>
			<polygon class="st10" points="145.7,115.7 135.9,110.1 135.9,67.6 146,72.3 			"/>
			<polygon class="st4" points="179.5,53.3 179.5,97.1 145.2,116.8 144.7,116.6 144.7,72.7 			"/>
			<g>
				<path class="st5" d="M160.2,53.7l6.8-3.9c0.8-0.4,2.1-0.4,2.8,0.1l6.3,3.7c0.5,0.3,0.7,0.7,0.6,1l-17.2,10.3l-13.9,8.5l-9.8-5.7
					L160.2,53.7z"/>
			</g>
			<path class="st6" d="M146,72v43.6v0.9v0.8c-0.3,0-0.6-0.1-0.9-0.2c-0.2-0.1-0.4-0.3-0.4-0.5l0,0v0v0V72.7L146,72z"/>
			<polygon class="st5" points="133.6,66.8 133.6,66.3 133.7,66.3 133.8,66.6 			"/>
			<polygon class="st5" points="144.7,73.3 144.7,72.7 144.9,72.9 			"/>
			<g>
				<path class="st4" d="M146.9,73.2l31.2-18c1.8-1.1,1.8-2.8,0-3.8l-6.3-3.7c-1.8-1.1-4.8-1.1-6.7,0l-31.2,18
					c-0.5,0.3-0.5,0.8,0,1.1c0.5,0.3,1.3,0.3,1.8,0l31.2-18c0.8-0.5,2.2-0.5,3,0l6.3,3.7c0.8,0.5,0.8,1.3,0,1.7l-31.2,18
					c-0.5,0.3-0.5,0.8,0,1.1C145.6,73.5,146.4,73.5,146.9,73.2z"/>
			</g>
			<polygon class="st5" points="155.1,94 171.3,84.6 171.3,68.4 155.1,77.7 			"/>
			<g>
				<path class="st5" d="M133.9,66.8c0.5,0.3,1.3,0.3,1.8,0l31.2-18c0.8-0.5,2.2-0.5,3,0l6.3,3.7c0.5,0.3,0.7,0.8,0.6,1.2
					c-0.1-0.2-0.3-0.4-0.6-0.6l-6.3-3.7c-0.8-0.5-2.2-0.5-3,0l-31.2,18c-0.5,0.3-1.3,0.3-1.8,0c-0.4-0.2-0.5-0.5-0.3-0.8
					C133.7,66.6,133.8,66.7,133.9,66.8z"/>
				<path class="st5" d="M145.1,73.2c0.5,0.3,1.3,0.3,1.8,0l31.2-18c0.8-0.5,1.2-1,1.3-1.6c0.1,0.8-0.3,1.6-1.3,2.2l-31.2,18
					c-0.5,0.3-1.3,0.3-1.8,0c-0.4-0.2-0.5-0.5-0.3-0.8C144.9,73.1,145,73.1,145.1,73.2z"/>
			</g>
		</g>
		<g>
			<g>
				<path class="st7" d="M192.5,103.7c1.8,1.1,1.8,2.8,0,3.8l-31.2,18c-0.5,0.3-1.3,0.3-1.8,0s-0.5-0.8,0-1.1l31.2-18
					c0.8-0.5,0.8-1.3,0-1.7l-3-1.7c0.3-0.5,0.6-1,0.9-1.6L192.5,103.7z"/>
				<path class="st11" d="M148.3,118.1l31.2-18c1.8-1.1,4.8-1.1,6.7,0l2.4,1.4c-0.3,0.5-0.6,1.1-0.9,1.6l-3.3-1.9
					c-0.8-0.5-2.2-0.5-3,0l-31.2,18c-0.5,0.3-1.3,0.3-1.8,0C147.8,118.9,147.8,118.4,148.3,118.1z"/>
			</g>
			<polygon class="st11" points="147.9,118.7 147.9,74.8 180.6,56.5 185.2,56.2 189.6,59.1 192.3,61.5 160.5,112 150.1,118.1 			"/>
			<polygon class="st12" points="160,124.2 150.2,118.6 150.2,76.1 160.3,80.8 			"/>
			<polygon class="st7" points="193.9,61.8 193.9,105.6 159.5,125.3 159.1,125.1 159.1,81.2 			"/>
			<g>
				<path class="st5" d="M174.6,62.2l6.8-3.9c0.8-0.4,2.1-0.4,2.8,0.1l6.3,3.7c0.5,0.3,0.7,0.7,0.6,1l-17.2,10.3L160,81.8l-9.8-5.7
					L174.6,62.2z"/>
			</g>
			<path class="st11" d="M160.3,80.5v43.6v0.9v0.8c-0.3,0-0.6-0.1-0.9-0.2c-0.2-0.1-0.4-0.3-0.4-0.5l0,0v0v0V81.2L160.3,80.5z"/>
			<polygon class="st5" points="147.9,75.3 147.9,74.8 148.1,74.8 148.1,75.1 			"/>
			<polygon class="st5" points="159.1,81.8 159.1,81.2 159.2,81.4 			"/>
			<g>
				<path class="st7" d="M161.3,81.7l31.2-18c1.8-1.1,1.8-2.8,0-3.8l-6.3-3.7c-1.8-1.1-4.8-1.1-6.7,0l-31.2,18
					c-0.5,0.3-0.5,0.8,0,1.1c0.5,0.3,1.3,0.3,1.8,0l31.2-18c0.8-0.5,2.2-0.5,3,0l6.3,3.7c0.8,0.5,0.8,1.3,0,1.7l-31.2,18
					c-0.5,0.3-0.5,0.8,0,1.1C160,82,160.8,82,161.3,81.7z"/>
			</g>
			<polygon class="st5" points="169.4,102.5 185.6,93.1 185.6,76.9 169.4,86.2 			"/>
			<g>
				<path class="st5" d="M148.3,75.3c0.5,0.3,1.3,0.3,1.8,0l31.2-18c0.8-0.5,2.2-0.5,3,0l6.3,3.7c0.5,0.3,0.7,0.8,0.6,1.2
					c-0.1-0.2-0.3-0.4-0.6-0.6l-6.3-3.7c-0.8-0.5-2.2-0.5-3,0l-31.2,18c-0.5,0.3-1.3,0.3-1.8,0c-0.4-0.2-0.5-0.5-0.3-0.8
					C148.1,75.1,148.2,75.2,148.3,75.3z"/>
				<path class="st5" d="M159.5,81.7c0.5,0.3,1.3,0.3,1.8,0l31.2-18c0.8-0.5,1.2-1,1.3-1.6c0.1,0.8-0.3,1.6-1.3,2.2l-31.2,18
					c-0.5,0.3-1.3,0.3-1.8,0c-0.4-0.2-0.5-0.5-0.3-0.8C159.2,81.6,159.3,81.6,159.5,81.7z"/>
			</g>
		</g>
		<g>
			<g>
				<path class="st4" d="M207.3,112.8c1.8,1.1,1.8,2.8,0,3.8l-31.2,18c-0.5,0.3-1.3,0.3-1.8,0c-0.5-0.3-0.5-0.8,0-1.1l31.2-18
					c0.8-0.5,0.8-1.3,0-1.7l-3-1.7c0.3-0.5,0.6-1,0.9-1.6L207.3,112.8z"/>
				<path class="st6" d="M163,127.2l31.2-18c1.8-1.1,4.8-1.1,6.7,0l2.4,1.4c-0.3,0.5-0.6,1.1-0.9,1.6l-3.3-1.9c-0.8-0.5-2.2-0.5-3,0
					l-31.2,18c-0.5,0.3-1.3,0.3-1.8,0C162.5,128,162.5,127.5,163,127.2z"/>
			</g>
			<polygon class="st6" points="162.7,127.8 162.7,83.9 195.4,65.6 200,65.3 204.4,68.2 207.1,70.5 175.2,121.1 164.8,127.2 			"/>
			<polygon class="st10" points="174.8,133.3 165,127.7 165,85.2 175.1,89.9 			"/>
			<polygon class="st4" points="208.6,70.9 208.6,114.7 174.3,134.4 173.8,134.2 173.8,90.3 			"/>
			<g>
				<path class="st5" d="M189.3,71.2l6.8-3.9c0.8-0.4,2.1-0.4,2.8,0.1l6.3,3.7c0.5,0.3,0.7,0.7,0.6,1l-17.2,10.3l-13.9,8.5l-9.8-5.7
					L189.3,71.2z"/>
			</g>
			<path class="st6" d="M175.1,89.6v43.6v0.9v0.8c-0.3,0-0.6-0.1-0.9-0.2c-0.2-0.1-0.4-0.3-0.4-0.5l0,0v0v0V90.3L175.1,89.6z"/>
			<polygon class="st5" points="162.7,84.4 162.7,83.9 162.8,83.9 162.9,84.2 			"/>
			<polygon class="st5" points="173.8,90.8 173.8,90.3 174,90.5 			"/>
			<g>
				<path class="st4" d="M176,90.8l31.2-18c1.8-1.1,1.8-2.8,0-3.8l-6.3-3.7c-1.8-1.1-4.8-1.1-6.7,0l-31.2,18c-0.5,0.3-0.5,0.8,0,1.1
					c0.5,0.3,1.3,0.3,1.8,0l31.2-18c0.8-0.5,2.2-0.5,3,0l6.3,3.7c0.8,0.5,0.8,1.3,0,1.7l-31.2,18c-0.5,0.3-0.5,0.8,0,1.1
					C174.7,91.1,175.5,91.1,176,90.8z"/>
			</g>
			<polygon class="st5" points="184.2,111.6 200.4,102.2 200.4,85.9 184.2,95.3 			"/>
			<g>
				<path class="st5" d="M163,84.4c0.5,0.3,1.3,0.3,1.8,0l31.2-18c0.8-0.5,2.2-0.5,3,0l6.3,3.7c0.5,0.3,0.7,0.8,0.6,1.2
					c-0.1-0.2-0.3-0.4-0.6-0.6l-6.3-3.7c-0.8-0.5-2.2-0.5-3,0l-31.2,18c-0.5,0.3-1.3,0.3-1.8,0c-0.4-0.2-0.5-0.5-0.3-0.8
					C162.8,84.2,162.9,84.3,163,84.4z"/>
				<path class="st5" d="M174.2,90.8c0.5,0.3,1.3,0.3,1.8,0l31.2-18c0.8-0.5,1.2-1,1.3-1.6c0.1,0.8-0.3,1.6-1.3,2.2l-31.2,18
					c-0.5,0.3-1.3,0.3-1.8,0c-0.4-0.2-0.5-0.5-0.3-0.8C174,90.6,174.1,90.7,174.2,90.8z"/>
			</g>
		</g>
	</g>
</g>
<g>
	<path class="st0" d="M220.6,183.3c-1.2-0.7-3.2-0.7-4.5,0l-57.7,33.3c-1.2,0.7-1.2,1.9,0,2.6c1.2,0.7,3.2,0.7,4.5,0l57.7-33.3
		C221.8,185.2,221.8,184,220.6,183.3z"/>
	<g>
		<g>
			<path class="st4" d="M230.4,165.3L230.4,165.3c-0.1-0.1-0.2-0.1-0.3-0.1l-3.5,0.8l1.4,2.3l2.4-2.7
				C230.5,165.5,230.5,165.4,230.4,165.3z"/>
			<g>
				<path class="st6" d="M229.1,167c0-0.5-0.4-1.1-0.8-1.4c-0.2-0.1-0.4-0.1-0.5-0.1c-4,0-8,1-11.5,3.1l-0.3,0.1l4.3,7.4l1.3-0.8
					c2.7-1.8,5-4.2,6.7-6.9l0.5-0.9C229,167.4,229.1,167.2,229.1,167z"/>
				<path class="st4" d="M221.2,174.2c0-1.9-1.4-4.3-3.1-5.2c-1.7-1-3-0.2-3,1.8c0,1.9,1.4,4.3,3.1,5.2
					C219.9,176.9,221.2,176.1,221.2,174.2z"/>
				<polygon class="st4" points="194.6,192.2 220.4,176.2 216,168.8 189.5,183.5 				"/>
				<path class="st4" d="M195.7,189.9c0-2.3-1.6-5-3.6-6.2c-2-1.1-3.6-0.2-3.6,2.1c0,2.3,1.6,5,3.6,6.2
					C194.1,193.1,195.7,192.1,195.7,189.9z"/>
			</g>
			<g>
				<path class="st4" d="M194.2,190.7c0-2.3-1.6-5-3.6-6.2c-2-1.1-3.6-0.2-3.6,2.1c0,2.3,1.6,5,3.6,6.2
					C192.6,193.9,194.2,193,194.2,190.7z"/>
				
					<rect x="153.9" y="193.6" transform="matrix(0.8621 -0.5067 0.5067 0.8621 -76.745 115.3677)" class="st4" width="39.5" height="10.1"/>
				<path class="st4" d="M160.2,210.7c0-2.3-1.6-5-3.6-6.2c-2-1.1-3.6-0.2-3.6,2.1c0,2.3,1.6,5,3.6,6.2S160.2,213,160.2,210.7z"/>
				<path class="st2" d="M158.9,210c-0.1-1.3-1.2-3-2.4-3.7c-1.3-0.7-2.2-0.2-2.2,1.1c0.1,1.3,1.2,3,2.4,3.7
					C158,211.8,159,211.3,158.9,210z"/>
			</g>
			<g>
				<path class="st5" d="M195.9,189.7c0-2.3-1.6-5-3.6-6.2c-0.8-0.5-1.5-0.6-2.1-0.4c0.6-0.7,1.7-0.8,2.9-0.1c2,1.1,3.6,3.9,3.6,6.2
					c0,1.4-0.6,2.2-1.4,2.5C195.7,191.3,195.9,190.6,195.9,189.7z"/>
				<path class="st6" d="M195.9,189.7c0-2.3-1.6-5-3.6-6.2c-1-0.6-1.9-0.6-2.5-0.2l-1.9,1.1l0.9,1.6c0.2,2.1,1.6,4.4,3.3,5.6
					l0.9,1.6l1.9-1.1l0,0C195.5,191.7,195.9,190.8,195.9,189.7z"/>
				<path class="st4" d="M194,190.8c0-2.3-1.6-5-3.6-6.2c-2-1.1-3.6-0.2-3.6,2.1c0,2.3,1.6,5,3.6,6.2
					C192.4,194.1,194,193.1,194,190.8z"/>
			</g>
			<g>
				<path class="st7" d="M157.3,211l-2.2-3.8l-7.2,4.2c-1,0.6-1.4,1.9-0.8,3l0,0c0.6,1,1.9,1.4,3,0.8L157.3,211z"/>
				<path class="st7" d="M157.7,210c0-1-0.7-2.2-1.6-2.7c-0.9-0.5-1.5-0.1-1.5,0.9c0,1,0.7,2.2,1.6,2.7
					C157.1,211.4,157.7,211,157.7,210z"/>
			</g>
			<g>
				<path class="st6" d="M165.7,196.7l-1.1-0.6c-0.6-0.4-1.4-0.3-2.3,0.2l-3.7,2.2c-0.7,0.4-1.3,1.4-1.3,2.2l0,1.9
					c0,0.3-0.2,0.7-0.4,0.9l0.1,0.9l-0.9-0.5l0,0c-0.1-0.1-0.2-0.2-0.2-0.5l0-1.9c0-1.7,1.2-3.8,2.6-4.6l3.7-2.2
					c1.2-0.7,2.4-0.9,3.3-0.4l1.1,0.6c0.6,0.4,1.4,0.3,2.3-0.2L184,186c0.2-0.1,0.4-0.1,0.5,0l0,0l0.9,0.5l-0.8,0.3
					c-0.1,0.3-0.3,0.7-0.6,0.8l-14.9,8.8C167.8,197.1,166.6,197.2,165.7,196.7z"/>
				<path class="st6" d="M165.6,196.7c-0.6-0.4-1.4-0.3-2.3,0.2l-3.7,2.2c-0.7,0.4-1.3,1.4-1.3,2.2l0,1.9c0,0.4-0.3,1-0.7,1.2
					c-0.4,0.2-0.7,0-0.7-0.4l0-1.9c0-1.7,1.2-3.8,2.6-4.6l3.7-2.2c1.2-0.7,2.4-0.9,3.3-0.4l1.1,0.6c0.6,0.4,1.4,0.3,2.3-0.2
					l14.9-8.8c0.4-0.2,0.7,0,0.7,0.4c0,0.4-0.3,1-0.7,1.2l-14.9,8.8c-1.2,0.7-2.4,0.9-3.3,0.4L165.6,196.7z"/>
				<g>
					<path class="st5" d="M158.3,201.6l0,1.9c0,0,0,0,0,0c0-0.1,0.1-0.2,0.1-0.3l0-1.9c0-0.1,0-0.1,0-0.2
						C158.3,201.3,158.3,201.5,158.3,201.6z"/>
				</g>
			</g>
		</g>
	</g>
</g>
<g>
	<g>
		<ellipse class="st0" cx="145.3" cy="165.2" rx="11.7" ry="6.8"/>
		<path class="st7" d="M158.7,159.4v-3.7H158c-0.6-1.1-1.7-2.1-3.2-3c-5.2-3-13.7-3-18.9,0c-1.5,0.9-2.6,1.9-3.2,3H132v3.7h0
			c0,2,1.3,4,3.9,5.5c5.2,3,13.7,3,18.9,0C157.4,163.4,158.7,161.4,158.7,159.4z"/>
		<ellipse class="st7" cx="145.3" cy="155.7" rx="13.3" ry="7.7"/>
		<path class="st5" d="M154.8,161.1c-5.2,3-13.7,3-18.9,0c-2.5-1.4-3.8-3.3-3.9-5.2c-0.1,2.1,1.2,4.1,3.9,5.7c5.2,3,13.7,3,18.9,0
			c2.7-1.6,4-3.6,3.9-5.7C158.6,157.8,157.3,159.7,154.8,161.1z"/>
	</g>
	<g>
		<path class="st5" d="M138.9,158.2c-0.2-0.1-0.4-0.3-0.4-0.5l0-5c0-0.4,0.5-0.7,1.2-0.7c0.7,0,1.2,0.3,1.2,0.7l0,4.2l12.1-1.5
			c0.6-0.1,1.3,0.2,1.4,0.5c0.1,0.4-0.3,0.7-0.9,0.8l-13.5,1.7C139.6,158.4,139.3,158.4,138.9,158.2
			C139,158.2,138.9,158.2,138.9,158.2z"/>
	</g>
</g>
<g>
	<g>
		<polygon class="st0" points="76.4,116.8 66.5,111 76.4,105.3 86.3,111 		"/>
		<polygon class="st11" points="86.3,103.8 76.4,109.5 76.4,98.1 86.3,92.3 		"/>
		<polygon class="st7" points="76.4,98.1 66.5,92.3 76.4,86.6 86.3,92.3 		"/>
		<polygon class="st7" points="76.4,109.5 66.5,103.8 66.5,92.3 76.4,98.1 		"/>
	</g>
	<polygon class="st5" points="72.8,103.3 70,101.7 70,98.5 72.8,100.1 	"/>
</g>
<g>
	<g>
		<polygon class="st0" points="14.7,219.4 4.4,213.4 14.7,207.5 25,213.4 		"/>
		<polygon class="st1" points="25,205.9 14.7,211.8 14.7,199.9 25,193.9 		"/>
		<polygon class="st4" points="14.7,199.9 4.4,193.9 14.7,188 25,193.9 		"/>
		<polygon class="st6" points="14.7,211.8 4.4,205.9 4.4,193.9 14.7,199.9 		"/>
	</g>
	<polygon class="st5" points="11,205.4 8.1,203.7 8.1,200.4 11,202.1 	"/>
</g>
<path class="st0" d="M52.2,205.5l-38.5-22.2c-0.9-0.5-0.9-1.7,0-2.2l36.6-21.1l40.9,23.6c0.9,0.5,0.9,1.7,0,2.2l-34.1,19.7
	C55.6,206.4,53.8,206.4,52.2,205.5z"/>
<g>
	<g>
		<path class="st7" d="M51.1,144.5c0-2.4-1.7-3.4-3.8-2.2l-36,20.7c-0.6,0.3-1.1,1.2-1.1,1.8c0,0.7,0.5,0.9,1.1,0.6l36-20.7
			c1-0.5,1.7-0.1,1.7,1l0,4c0.7,0,1.4,0,2.1,0L51.1,144.5z"/>
		<path class="st11" d="M11.3,172.7l36-13.1c2.1-1.2,3.8-4.2,3.8-6.6l0-3.2c-0.7,0-1.4,0-2.1,0l0,4.4c0,1.1-0.8,2.4-1.7,3l-36,13.1
			c-0.6,0.3-1.1,1.2-1.1,1.8C10.3,172.8,10.7,173,11.3,172.7z"/>
	</g>
	<polygon class="st11" points="10.5,172.7 54.3,198.1 91.3,176 94.3,171.6 94,173.1 93.2,169.1 24.4,171.7 12.3,170.9 	"/>
	<polygon class="st12" points="12,165.1 12,170.5 54.3,195 55.4,189.8 	"/>
	<polygon class="st7" points="93.7,167.3 50,142.1 10.7,165 10.6,165.5 54.3,190.8 	"/>
	<g>
		<path class="st5" d="M79.8,180.3l10.3-6.1c0.9-0.6,1.5-1.8,1.5-2.9l0-0.8c0-0.7-0.3-1.1-0.7-1.2l-20.2,11.2l-16.5,8.9l0,5.4
			L79.8,180.3z"/>
	</g>
	<path class="st11" d="M55.7,190l-43.4-25.1l-0.9-0.5l-0.8-0.5c-0.2,0.3-0.3,0.7-0.3,1c0,0.3,0.1,0.6,0.3,0.7l0,0l0,0l0,0l43.7,25.3
		L55.7,190z"/>
	<polygon class="st5" points="53.7,197.7 54.3,198.1 54.4,197.9 54,197.6 	"/>
	<polygon class="st5" points="53.8,190.5 54.3,190.8 54.2,190.5 	"/>
	<g>
		<path class="st7" d="M55.1,188.3l36-20.7c2.1-1.2,3.8-0.2,3.8,2.2l0,0.8c0,2.4-1.7,5.4-3.8,6.6l-36,20.7c-0.6,0.3-1.1,0.1-1.1-0.6
			c0-0.7,0.5-1.5,1.1-1.8l36-20.7c1-0.5,1.7-1.9,1.7-3l0-0.8c0-1.1-0.8-1.6-1.7-1l-36,20.7c-0.6,0.3-1.1,0.1-1.1-0.6
			C54,189.5,54.5,188.7,55.1,188.3z"/>
	</g>
	<g>
		<path class="st5" d="M54,197.4c0-0.7,0.5-1.5,1.1-1.8l36-20.7c1-0.5,1.7-1.9,1.7-3l0-0.8c0-0.7-0.3-1.2-0.8-1.2
			c0.2,0.2,0.3,0.5,0.3,0.9l0,0.8c0,1.1-0.8,2.4-1.7,3l-36,20.7c-0.6,0.3-1.1,1.2-1.1,1.8c0,0.5,0.3,0.8,0.7,0.7
			C54,197.7,54,197.6,54,197.4z"/>
		<path class="st5" d="M54,190.2c0-0.7,0.5-1.5,1.1-1.8l36-20.7c0.9-0.5,1.7-0.6,2.4-0.4c-0.7-0.6-1.8-0.6-3,0.1l-36,20.7
			c-0.6,0.3-1.1,1.2-1.1,1.8c0,0.5,0.3,0.8,0.7,0.7C54.1,190.5,54,190.3,54,190.2z"/>
	</g>
	<polygon class="st5" points="37.4,167.8 57.2,156.4 74.4,166.4 54.6,177.8 	"/>
</g>
<g>
	<path class="st0" d="M86.5,223.1c7.9,4.6,20.8,4.6,28.8,0c7.9-4.6,7.9-12,0-16.6c-7.9-4.6-20.8-4.6-28.8,0
		C78.5,211.1,78.5,218.6,86.5,223.1z M94.2,211c3.7-2.1,9.6-2.1,13.2,0c3.7,2.1,3.7,5.5,0,7.6c-3.7,2.1-9.6,2.1-13.2,0
		C90.6,216.5,90.6,213.1,94.2,211z"/>
	<g>
		<g>
			<path class="st14" d="M118.2,203.8l-7.3,0.1c-0.5-0.7-1.3-1.4-2.3-1.9c-4-2.3-10.3-2.5-14.6-0.5l-4.3-4.1l-6.6,0.1
				c0.3-0.2,0.7-0.4,1-0.6c9.2-5.3,24.2-5.3,33.4,0c1.7,1,3.1,2.1,4.2,3.2L118.2,203.8z"/>
			<polygon class="st11" points="83.1,187 83.1,197.5 89.8,197.4 89.8,186.9 			"/>
			<polygon class="st14" points="94.1,190.9 94.1,201.5 89.8,197.4 89.8,186.9 			"/>
			<path class="st14" d="M111,193.4v10.5l-9.5-7.8l-7.4,5.3v-10.5l6.8-3.3c0,0,9.3,2.9,9.8,3C111.1,190.7,111,193.4,111,193.4z"/>
			<polygon class="st14" points="118.2,193.3 118.2,203.8 111,203.9 111,193.4 			"/>
			<polygon class="st11" points="121.7,189.6 121.7,200.1 118.2,203.8 118.2,193.3 			"/>
			<path class="st7" d="M118.2,193.3l-7.3,0.1c-0.5-0.7-1.3-1.4-2.3-1.9c-4-2.3-10.3-2.5-14.6-0.5l-4.3-4.1l-6.6,0.1
				c0.3-0.2,0.7-0.4,1-0.6c9.2-5.3,24.2-5.3,33.4,0c1.7,1,3.1,2.1,4.2,3.2L118.2,193.3z"/>
		</g>
		<g>
			<path class="st6" d="M91.9,192.2v9.7l-6.3-1.5c0,0,0.4-5.7,0.5-5.8C86.2,194.4,91.9,192.2,91.9,192.2z"/>
			<g>
				<path class="st1" d="M96.6,201.9v10.5l-0.7,0.7l-4.4-2.6c0,0,0.7-8,0.8-8.2C92.4,202.2,96.6,201.9,96.6,201.9z"/>
				<path class="st2" d="M88.1,199.2l3.8,3.6c-3.2,2.5-2.8,6,1.1,8.3c1.1,0.6,2.3,1.1,3.6,1.4l-3.9,4.2l3.5,3.3
					c-4.4-0.5-8.6-1.8-12.1-3.7c-7.9-4.6-9-11.6-3.3-16.9L88.1,199.2z"/>
				<polygon class="st2" points="96.2,209.4 96.2,219.9 87.6,216.6 77.2,206.7 77.3,195.5 88.2,204.2 				"/>
				<path class="st4" d="M88.1,188.6l3.8,3.6c-3.2,2.5-2.8,6,1.1,8.3c1.1,0.6,2.3,1.1,3.6,1.4l-3.9,4.2l3.5,3.3
					c-4.4-0.5-8.6-1.8-12.1-3.7c-7.9-4.6-9-11.6-3.3-16.9L88.1,188.6z"/>
			</g>
		</g>
		<g>
			<path class="st2" d="M96.2,216.6l3.5-3.7c3.2,0.2,6.5-0.4,9-1.8c2.5-1.5,3.6-3.5,3.1-5.4l8.2-0.1l3.2-3.4
				c2.8,4.8,0.9,10.2-5.7,14c-4.8,2.8-11.2,4.1-17.5,4L96.2,216.6z"/>
			<polygon class="st2" points="100,209.6 100,220.2 124.5,206.6 124.5,196.1 120.9,197.5 			"/>
			<polygon class="st1" points="96.2,206 96.2,216.6 100,220.2 100,209.6 			"/>
			<path class="st6" d="M96.2,206l3.5-3.7c3.2,0.2,6.5-0.4,9-1.8c2.5-1.5,3.6-3.5,3.1-5.4l8.2-0.1l3.2-3.4c2.8,4.8,0.9,10.2-5.7,14
				c-4.8,2.8-11.2,4.1-17.5,4L96.2,206z"/>
		</g>
	</g>
</g>
</svg>
